# xmcd
#
# Track frame offsets:
#	150
#	11094
#	24674
#	37869
#	57285
#	74712
#	78990
#	98193
#	117831
#	131288
#	146975
#	165665
#	182839
#	200360
#
# Disc length: 2797 seconds
#
# Revision: 1
# Processed by: cddbd v1.5PL3 Copyright (c) Steve Scherf et al.
# Submitted via: audiograbber 1.83.01
#
DISCID=c10aeb0e
DTITLE=Christian Commie Cowboys - Christian Commie Cowboys
DYEAR=2002
DGENRE=
TTITLE0=Uptown Downhome Woman
TTITLE1=How Do You Like Your Eggs?
TTITLE2=Blue Smoke N' Mirros
TTITLE3=Where The Soul Never Dies
TTITLE4=Blue Highways
TTITLE5=Boomtown Go-Go Juice
TTITLE6=Sugar Booze Blues
TTITLE7=Stormy Weather
TTITLE8=Jailhouse Rock
TTITLE9=I Tried To Reach You
TTITLE10=Rue
TTITLE11=Morning Dew
TTITLE12=Running Out Of Tomorrows
TTITLE13=Might As Well Sing
EXTD=
EXTT0=
EXTT1=
EXTT2=
EXTT3=
EXTT4=
EXTT5=
EXTT6=
EXTT7=
EXTT8=
EXTT9=
EXTT10=
EXTT11=
EXTT12=
EXTT13=
PLAYORDER=
